<?xml version="1.0" encoding="iso-8859-1"?>
<!-- Generator: Adobe Illustrator 19.0.0, SVG Export Plug-In . SVG Version: 6.00 Build 0)  -->
<svg version="1.1" id="Capa_1" xmlns="http://www.w3.org/2000/svg" xmlns:xlink="http://www.w3.org/1999/xlink" x="0px" y="0px"
	 viewBox="0 0 512 512" style="enable-background:new 0 0 512 512;" xml:space="preserve">
<g>
	<g>
		<path d="M256,0c-49.629,0-90,41.371-90,91c0,49.629,40.371,90,90,90s90-40.371,90-90C346,41.371,305.629,0,256,0z"/>
	</g>
</g>
<g>
	<g>
		<path d="M256,391c-8.276,0-15,6.724-15,15s6.724,15,15,15c8.276,0,15-6.724,15-15S264.276,391,256,391z"/>
	</g>
</g>
<g>
	<g>
		<path d="M465.399,316.513C456.844,306.655,444.467,301,431.415,301H80.585c-13.052,0-25.43,5.654-33.984,15.513
			s-12.407,22.925-10.562,35.859l25.107,146.752C62.201,506.507,68.529,512,76,512h360c7.471,0,13.799-5.493,14.854-12.876
			l25.107-146.752C477.807,339.437,473.954,326.371,465.399,316.513z M256,451c-24.814,0-45-20.186-45-45c0-24.814,20.186-45,45-45
			c24.814,0,45,20.186,45,45C301,430.814,280.814,451,256,451z"/>
	</g>
</g>
<g>
	<g>
		<path d="M332.661,182.542C311.805,200.037,285.288,211,256,211c-29.288,0-55.805-10.963-76.661-28.458
			c-44.978,7.271-80.26,43.187-86.823,88.458h326.968C412.921,225.729,377.639,189.813,332.661,182.542z"/>
	</g>
</g>
<g>
</g>
<g>
</g>
<g>
</g>
<g>
</g>
<g>
</g>
<g>
</g>
<g>
</g>
<g>
</g>
<g>
</g>
<g>
</g>
<g>
</g>
<g>
</g>
<g>
</g>
<g>
</g>
<g>
</g>
</svg>
