<?xml version="1.0"?>
<svg xmlns="http://www.w3.org/2000/svg" id="Solid" viewBox="0 0 64 64"><path d="M43,39.75A19.75,19.75,0,1,0,23.25,20,19.772,19.772,0,0,0,43,39.75Zm0-18a5.75,5.75,0,0,1-1.75-11.227V9a1.75,1.75,0,0,1,3.5,0v1.25H47a1.75,1.75,0,0,1,0,3.5H43a2.25,2.25,0,0,0,0,4.5,5.75,5.75,0,0,1,1.75,11.227V31a1.75,1.75,0,0,1-3.5,0V29.75H39a1.75,1.75,0,0,1,0-3.5h4a2.25,2.25,0,0,0,0-4.5Z"/><rect x="0.25" y="38.25" width="12" height="25.5" rx="1.75"/><path d="M58.264,43.166,47.978,49.1a7.246,7.246,0,0,1-.152.716,7.009,7.009,0,0,1-8.574,4.95L30.8,52.505a1.75,1.75,0,1,1,.906-3.38l8.451,2.265a3.5,3.5,0,1,0,1.812-6.761l-7.862-2.107a14.375,14.375,0,0,0-15.155-1.455l-.366.183H15.75v19.5h6.19l16.431,2.8a9.768,9.768,0,0,0,7.54-1.848L62.306,49.244a3.657,3.657,0,0,0-4.042-6.078Z"/></svg>
