<svg clip-rule="evenodd" fill-rule="evenodd" stroke-linejoin="round" stroke-miterlimit="2" viewBox="0 0 510 510" xmlns="http://www.w3.org/2000/svg"><path d="m326.751 242.707h-230.926c-12.603 0-22.82-10.217-22.82-22.82v-76.377c0-12.603 10.217-22.819 22.82-22.819h112.763c14.112 31.206 45.562 53.006 81.939 53.006s67.816-21.8 81.921-53.006h31.678c12.603 0 22.82 10.216 22.82 22.819v76.377c0 12.157-9.506 22.093-21.49 22.782v-27.595c0-21.654-17.677-39.375-39.331-39.375-21.645 0-39.374 17.73-39.374 39.375zm-215.705-71.473h93.7c4.416 0 8-3.585 8-8 0-4.416-3.584-8-8-8h-93.7c-4.415 0-8 3.584-8 8 0 4.415 3.585 8 8 8zm0 36.93h172.138c4.416 0 8-3.585 8-8s-3.584-8-8-8h-172.138c-4.415 0-8 3.585-8 8s3.585 8 8 8zm266.209 254.979h-152.652c-.226-.502-.474-.993-.744-1.472-4.911-8.771-7.192-17.367-7.192-27.41v-97.84c0-11.622 9.517-21.095 21.095-21.095 6.929 0 13.068 3.333 16.928 8.508v-3.508c0-11.885 9.692-21.621 21.576-21.621 8.508 0 15.876 4.956 19.428 12.148.219-12.893 10.876-23.331 23.77-23.331 11.402 0 20.962 8.07 23.287 18.814v-91.262c0-12.85 10.525-23.375 23.374-23.375 12.85 0 23.331 10.525 23.331 23.375v110.953l8.07.219c23.243.57 39.469 14.999 39.469 38.242l-3.64 40.96c-1.359 15.481-11.051 27.41-24.471 35.216l-23.726 13.814c-3.621 2.111-6.314 5.103-7.903 8.665zm-150.983 16h149.326v20.857h-149.326zm64.255-321.446c-40.676 0-73.86-33.162-73.86-73.837 0-40.676 33.184-73.86 73.86-73.86s73.837 33.184 73.837 73.86c0 40.675-33.161 73.837-73.837 73.837zm-9.695-67.337-16.504-16.504c-4.275-4.275-11.216-4.275-15.49 0-4.275 4.297-4.275 11.216 0 15.49l24.26 24.282c4.274 4.275 11.215 4.275 15.49 0 14.631-14.631 29.085-29.416 43.65-44.113 4.253-4.297 4.231-11.215-.044-15.468s-11.215-4.231-15.468.044z"/></svg>