<svg fill="none" height="512" viewBox="0 0 512 512" width="512" xmlns="http://www.w3.org/2000/svg" xmlns:xlink="http://www.w3.org/1999/xlink"><clipPath id="clip0_299_3034"><path d="m0 0h512v512h-512z"/></clipPath><g clip-path="url(#clip0_299_3034)" clip-rule="evenodd" fill="rgb(0,0,0)" fill-rule="evenodd"><path d="m431.644 104.977c-.001 0 .002-.001 0 0l-42.471 17.659c-.243.099-.377.252-.447.406-.036.079-.053.155-.057.226-.003.063.003.159.053.3l.037.101 56.253 162.289.044.129c.027.08.06.132.105.181.054.057.142.128.27.185.269.121.499.102.66.036-.001.001.001-.001 0 0l42.476-17.661c.243-.099.377-.252.447-.406.036-.079.053-.155.056-.226.003-.063-.002-.158-.053-.3l-.036-.101-56.254-162.289-.044-.129c-.026-.08-.059-.132-.104-.18-.054-.058-.143-.129-.27-.186-.269-.12-.503-.1-.665-.034zm22.763-6.9247c-4.413-13.0951-19.073-19.4122-31.528-14.2584l-42.4 17.6291c-11.54 4.729-17.66 17.679-13.367 29.797l56.221 162.192c4.413 13.095 19.072 19.412 31.527 14.258l.018-.007 42.383-17.623c11.54-4.728 17.66-17.678 13.366-29.796z"/><path d="m71.9198 110.394c-.0009.003-.0018.006-.0026.009l-48.8741 165.369c-.0256.087-.0522.173-.0799.259-.0814.253.0036.688.5326.877l43.087 15.404.2064.077c.0097.003.02.007.0536.005.0491-.004.1485-.022.2756-.087.2718-.138.4174-.345.4733-.522.0009-.003.0018-.006.0027-.009l48.8746-165.369c.025-.087.052-.173.079-.259.082-.253-.003-.689-.532-.877l-43.0872-15.405-.2064-.076c-.0096-.003-.02-.007-.0536-.005-.0491.003-.1485.022-.2756.087-.2719.138-.4175.345-.4734.522zm8.8132-22.0834c-12.9284-4.8246-26.9491 2.7557-30.7738 15.5054l-48.86863 165.349c-3.83519 12.203 2.77156 25.074 14.69473 29.333l42.9933 15.37c12.9286 4.825 26.9491-2.756 30.7738-15.505l.0134-.045 48.8552-165.304c3.835-12.202-2.77-25.072-14.691-29.331z"/><path d="m309.37 135.4c-11.611-2.985-21.6-3.412-28.981-.459l-.126.05c-17.605 6.801-51.1 29.102-73.49 58.848-4.55 6.304-4.048 15.768 1.019 21.635.311.36.599.739.862 1.134l.047.07c3.679 4.063 9.02 5.074 13.581 3.119l.042-.017c3.621-1.536 7.724-4.326 12.529-8.235 2.936-2.388 5.531-4.669 8.266-7.073 2.023-1.778 4.123-3.624 6.495-5.631 4.99-4.222 10.708-8.714 16.755-11.672 6.163-3.015 13.964-5.06 22.275-2.325 6.315 2.081 15.196 6.955 24.64 12.68 9.771 5.923 21.172 13.399 32.91 21.375 23.476 15.95 48.697 34.165 65.689 46.574 14.555 10.47 19.981 29.234 15.25 46.088l-.024.087c-5.404 18.689-22.397 30.731-40.062 29.383.044 9.51-3.062 19.096-9.469 26.784l-.017.02c-9.467 11.308-24.092 15.732-37.496 11.788-.414 9.433-3.905 18.782-10.614 26.102l-.035.038c-11.797 12.753-30.493 15.907-45.627 6.695l-43.103-26.353c-5.401-3.302-7.102-10.357-3.8-15.758s10.357-7.103 15.758-3.801l43.065 26.33c-.002-.001.001.001 0 0 5.395 3.281 12.139 2.426 16.86-2.661 7.622-8.34 5.354-22.515-3.282-27.73-.003-.002-.006-.004-.009-.005l-44.183-26.555c-5.425-3.261-7.183-10.304-3.923-15.729 3.26-5.426 10.301-7.182 15.728-3.923l66.58 39.993c5.228 3.182 11.95 2.285 16.497-3.14 6.355-7.639 5.068-19.211-1.368-25.165l-64.518-41.3-.03-.019c-5.326-3.409-6.885-10.487-3.484-15.818 3.401-5.332 10.477-6.902 15.813-3.509l.03.019 62.508 39.737c1.198.768 2.338 1.591 3.419 2.464l9.796 6.271c7.839 5.072 19.393 1.665 22.931-10.483 2.385-8.564-.657-16.992-6.597-21.253l-.078-.057c-16.939-12.369-41.926-30.415-65.088-46.152-11.589-7.874-22.623-15.103-31.91-20.732-9.615-5.828-16.42-9.354-19.928-10.51-.509-.167-1.834-.421-5.03 1.143-3.323 1.626-7.217 4.515-12.021 8.58-1.635 1.383-3.524 3.037-5.515 4.781-3.141 2.751-6.536 5.724-9.589 8.207-5.283 4.298-11.387 8.729-18.026 11.547-14.038 6.006-30.364 2.235-40.515-9.88-.268-.32-.519-.655-.751-1.002l-.085-.129c-11.415-13.772-12.521-34.682-1.648-49.593l.099-.135c24.911-33.136 61.87-58.113 83.548-66.508 14.139-5.631 29.901-3.836 43.137-.433 14.152 3.638 27.685 9.755 36.689 13.826 1.041.47 2.022.913 2.936 1.322 5.943 2.659 11.549 2.684 15.81 1.995 2.131-.345 3.853-.86 4.988-1.264.563-.2.966-.368 1.187-.464.091-.039.149-.066.174-.078 5.626-2.784 12.457-.523 15.304 5.087 2.864 5.646.61 12.544-5.035 15.409l-5.187-10.222c5.187 10.222 5.183 10.224 5.178 10.226l-.009.005-.019.01-.043.022-.104.051c-.077.038-.169.082-.277.133-.214.101-.489.227-.822.372-.663.29-1.561.656-2.665 1.048-2.2.783-5.277 1.691-9.006 2.295-7.459 1.207-17.814 1.232-28.836-3.698-.972-.436-1.981-.89-3.022-1.36-9.157-4.129-20.854-9.403-32.948-12.512z"/><path d="m116.219 263.854c-.001.004-.003.007-.004.011l-23.8438 59.497c-2.4995 6.578.7021 15.889 9.1658 20.044l2.318 1.054c.105.048.209.097.313.148 7.907 3.887 15.215.444 17.571-5.376.001-.004.003-.007.004-.011l23.844-59.498c2.499-6.577-.702-15.888-9.165-20.044l-2.319-1.053c-.105-.048-.209-.097-.313-.148-7.907-3.887-15.215-.445-17.571 5.376zm27.515-26.033c-18.398-8.934-40.885-2.096-48.7785 17.465l-23.8958 59.628-.0537.137c-7.2717 18.84 2.4425 40.242 20.6619 49.048.0811.039.1627.077.2447.115l2.3115 1.05c18.3979 8.935 40.8849 2.097 48.7789-17.465l23.895-59.627.054-.137c7.272-18.84-2.442-40.242-20.662-49.048-.081-.04-.163-.078-.245-.115z"/><path d="m178.05 302.709c-8.626-4.174-16.606-.463-19.189 5.993l-22.993 57.37c0 .001.001-.001 0 0-2.86 7.157.683 17.336 9.83 21.742l2.353 1.069c.083.038.166.077.249.117 8.626 4.174 16.606.463 19.189-5.993l22.993-57.371m-2.581-43.628c-19.027-9.121-42.206-2.105-50.322 18.173-.001.001 0-.001 0 0-.001.001-.002.006-.003.007l-22.993 57.37c-7.843 19.609 2.423 41.984 21.341 50.993l.185.086 2.34 1.064c19.029 9.122 42.212 2.103 50.325-18.18l22.993-57.371c7.844-19.609-2.423-41.984-21.341-50.992l-.184-.086zm-7.249 21.887-2.353-1.07c-.083-.038-.166-.077-.249-.116"/><path d="m207.301 347.768c0 .002.001-.001 0 0l-14.063 35.271c-2.863 7.157.681 17.334 9.83 21.741l2.352 1.07c.084.037.167.076.25.116 8.624 4.174 16.603.465 19.187-5.989-.001.001 0-.001 0 0l14.065-35.275c2.863-7.157-.681-17.334-9.83-21.741l-2.353-1.069c-.083-.038-.166-.077-.249-.117-8.624-4.173-16.604-.46-19.189 5.993zm29.04-26.694c-19.029-9.122-42.211-2.104-50.325 18.18l-14.063 35.271c-.001.002.001-.002 0 0-7.839 19.607 2.425 41.985 21.34 50.992l.185.086 2.341 1.064c19.029 9.122 42.211 2.104 50.325-18.18l14.063-35.271c.001-.002.002-.005.003-.007 7.838-19.608-2.428-41.978-21.344-50.985l-.184-.086z"/><path d="m224.447 140.152c-11.849-4.203-24.306-6.626-33.145-4.317-13.788 3.602-29.995 4.5-42.246 4.585-6.229.044-11.647-.123-15.518-.301-1.938-.089-3.496-.182-4.581-.253-.543-.035-.969-.065-1.266-.087l-.347-.027-.099-.008-.04-.003c-.002 0-.007 0 .927-11.425l-.927 11.425c-6.31-.516-11.013-6.049-10.497-12.359.515-6.308 6.046-11.004 12.354-10.49l.063.005.257.019c.235.018.596.043 1.072.075.952.062 2.361.146 4.138.227 3.558.164 8.562.318 14.304.278 11.691-.082 25.62-.97 36.611-3.841 15.939-4.165 34.065.444 46.603 4.891 6.577 2.333 12.286 4.87 16.349 6.822 2.039.979 3.683 1.82 4.835 2.426.577.304 1.033.549 1.354.725l.382.21.113.063.037.021.013.007c.003.002.01.006-5.624 9.988l5.634-9.982c5.513 3.112 7.46 10.103 4.349 15.616-3.11 5.51-10.096 7.458-15.608 4.353l-.009-.005-.037-.02-.237-.131c-.223-.122-.574-.311-1.041-.556-.933-.492-2.326-1.205-4.086-2.05-3.533-1.697-8.47-3.889-14.087-5.881z"/></g></svg>