<svg id="Outline" enable-background="new 0 0 30 30" viewBox="0 0 30 30" xmlns="http://www.w3.org/2000/svg"><g><path d="m9.25 15c0 3.1709 2.57959 5.75 5.75 5.75 3.1709 0 5.75-2.5791 5.75-5.75s-2.5791-5.75-5.75-5.75c-3.17041 0-5.75 2.5791-5.75 5.75zm10 0c0 2.34375-1.90625 4.25-4.25 4.25-2.34326 0-4.25-1.90625-4.25-4.25s1.90674-4.25 4.25-4.25c2.34375 0 4.25 1.90625 4.25 4.25z"/><path d="m13.18652 14.00098-1.06054 1.06054 2.40527 2.40528 3.34277-3.34278-1.06054-1.06054-2.28223 2.28222z"/><path d="m26.4502 14.90039-2.4502-1.83789-2.4502 1.83789.90039 1.19922.76331-.57239c-.18457 2.9295-1.86786 5.52185-4.51721 6.84192l.66797 1.3418c3.17865-1.58276 5.18359-4.71155 5.35284-8.23572l.8327.62439z"/><path d="m16.09961 7.5498-.57227-.76318c2.90076.20197 5.52289 1.87 6.8418 4.51709l1.3418-.66797c-1.58276-3.17865-4.71155-5.18359-8.23572-5.35284l.62439-.8327-1.19971-.9004-1.8374 2.4502 1.83741 2.4502z"/><path d="m7.5498 13.90039-.7633.57239c.18457-2.92938 1.86792-5.52094 4.51819-6.84192l-.66895-1.3418c-3.17865 1.58276-5.18359 4.71155-5.35284 8.23572l-.8327-.62439-.9004 1.19922 2.4502 1.83789 2.4502-1.83789z"/><path d="m13.8999 22.4502.57184.76233c-2.90204-.20325-5.52106-1.86926-6.84039-4.51721l-1.34277.66992c1.58368 3.17761 4.71283 5.1825 8.23602 5.35187l-.62469.8327 1.2002.90039 1.83739-2.4502-1.8374-2.4502z"/></g></svg>