<svg id="Layer_1" viewBox="0 0 512 512" xmlns="http://www.w3.org/2000/svg" data-name="Layer 1"><path d="m153 227.502v-20.594c0-48.298 39.516-87.814 87.814-87.814h30.373c48.297 0 87.814 39.517 87.814 87.814v20.594c0 4.876-3.978 8.854-8.854 8.854h-62.075l-11.026-23.468c-3.852-8.2-11.986-13.365-21.045-13.365s-17.193 5.165-21.046 13.365l-11.025 23.468h-62.075c-4.876 0-8.854-3.978-8.854-8.854zm103-116.907c27.647 0 50.06-22.412 50.06-50.06s-22.412-50.06-50.06-50.06-50.06 22.412-50.06 50.06 22.412 50.06 50.06 50.06zm40.932 232.904c1.687-1.225 2.464-3.19 2.072-5.237l-7.578-39.59 29.401-27.575c1.52-1.426 2.047-3.473 1.402-5.455-.644-1.982-2.273-3.329-4.341-3.589l-39.994-5.027-17.141-36.483c-.886-1.886-2.67-3.019-4.754-3.019s-3.868 1.132-4.755 3.019l-17.14 36.483-39.994 5.027c-2.068.26-3.697 1.606-4.341 3.589-.644 1.982-.118 4.029 1.402 5.455l29.401 27.575-7.577 39.59c-.392 2.047.385 4.012 2.072 5.237 1.686 1.225 3.795 1.357 5.621.352l35.311-19.441 35.311 19.441c1.826 1.005 3.935.873 5.621-.352zm81.848 116.328h-89.624c-9.378 0-17.05 7.673-17.05 17.05v7.598c0 9.378 7.673 17.051 17.05 17.051h89.624c9.377 0 17.05-7.673 17.05-17.051v-7.598c0-9.377-7.673-17.05-17.05-17.05zm72.743-227.029c-8.068 18.521-18.54 39.469-26.963 54.609 14.256 17.195 2.008 39.774-15.003 59.497-9.696 11.242-20.754 21.384-28.643 28.618-2.492 2.285-4.672 4.285-6.123 5.675-2.88 2.77-7.46 2.681-10.23-.198-2.77-2.88-2.681-7.46.198-10.23 1.907-1.828 3.98-3.728 6.35-5.902 7.676-7.039 18.436-16.907 27.51-27.428 10.323-11.97 18.753-24.937 17.16-34.862-1.048-2.729-2.843-5.282-5.528-7.598-7.477-6.449-17.819-5.598-30.291 6.643-19.858 19.49-39.112 35.618-61 53.345-25.528 22.208-29.405 57.381-28.921 90.461l89.84.019c6.68-23.231 18.948-30.657 34.044-46.228 8.904-9.184 20.932-17.701 29.511-40.295l45.401-121.156c3.334-9.727 6.556-21.401 7.166-26.999-6.709-16.196-27.336-17.321-44.477 22.029zm-229.561 212.63c.483-33.08-3.394-68.252-28.921-90.461-21.888-17.727-41.142-33.855-61-53.345-12.472-12.241-22.814-13.091-30.291-6.643-2.685 2.316-4.48 4.869-5.528 7.598-1.593 9.925 6.836 22.892 17.16 34.862 9.074 10.521 19.834 20.388 27.51 27.428 2.37 2.173 4.442 4.074 6.35 5.902 2.88 2.77 2.969 7.351.198 10.23-2.77 2.88-7.351 2.968-10.23.198-1.451-1.39-3.631-3.39-6.123-5.675-7.889-7.235-18.948-17.376-28.643-28.618-17.011-19.723-29.259-42.302-15.003-59.497-8.423-15.14-18.895-36.087-26.963-54.609-17.141-39.35-37.769-38.226-44.477-22.029.609 5.599 3.831 17.272 7.166 26.999l45.401 121.156c8.579 22.595 20.607 31.111 29.511 40.295 15.097 15.571 27.365 22.997 34.044 46.228l89.84-.019zm.882 14.399h-89.624c-9.377 0-17.05 7.673-17.05 17.05v7.598c0 9.377 7.673 17.051 17.05 17.051h89.624c9.377 0 17.05-7.673 17.05-17.051v-7.598c0-9.377-7.672-17.05-17.05-17.05z"/></svg>