<?xml version="1.0" encoding="iso-8859-1"?>
<!-- Generator: Adobe Illustrator 19.0.0, SVG Export Plug-In . SVG Version: 6.00 Build 0)  -->
<svg version="1.1" id="Capa_1" xmlns="http://www.w3.org/2000/svg" xmlns:xlink="http://www.w3.org/1999/xlink" x="0px" y="0px"
	 viewBox="0 0 512 512" style="enable-background:new 0 0 512 512;" xml:space="preserve">
<g>
	<g>
		<path d="M508.372,306.237l-35.325-41.213c25.207-28.438,38.936-63.125,38.936-99.022c0-93.005-90.232-165.995-195.993-165.995
			c-107.519,0-194.994,74.465-194.994,165.995c0,2.299,0.076,4.604,0.189,6.907C49.633,201.341,0,262.63,0,333.498
			c0,39.718,15.172,77.828,43.008,108.707L3.711,487.115c-3.875,4.429-4.803,10.716-2.37,16.075
			c2.432,5.36,7.773,8.802,13.659,8.802h210.993c1.669,0,6.926-0.953,8-1.052c49.482-4.565,95.349-23.99,129.812-55.108
			c36.388-32.856,57.92-76.849,57.146-124.834h76.033C509.772,330.998,516.696,315.948,508.372,306.237z M228.993,481.263
			c-1.311,0.107-5.845,0.498-6.749,0.73H48.056l26.646-30.453c5.3-6.057,4.875-15.216-0.963-20.756
			c-28.206-26.77-43.74-61.32-43.74-97.286c0-81.312,81.185-147.495,180.994-147.495c99.249,0,179.994,66.166,179.994,147.495
			C390.987,409.536,320.151,473.815,228.993,481.263z M417.496,301L417.496,301c-18.099-83.448-104.651-144.996-206.503-144.996
			c-20.822,0-40.943,2.563-59.956,7.312c1.744-73.753,75.065-133.308,164.953-133.308c91.53,0,165.994,61.007,165.994,135.995
			c0,32.076-14.049,63.189-39.56,87.608c-5.754,5.507-6.2,14.55-1.017,20.597L464.371,301H417.496z"/>
	</g>
</g>
<g>
	<g>
		<path d="M120.996,300.999c-16.541,0-29.999,13.458-29.999,29.999s13.458,29.999,29.999,29.999s29.999-13.458,29.999-29.999
			S137.538,300.999,120.996,300.999z"/>
	</g>
</g>
<g>
	<g>
		<path d="M210.993,300.999c-16.541,0-29.999,13.458-29.999,29.999s13.458,29.999,29.999,29.999s29.999-13.458,29.999-29.999
			S227.535,300.999,210.993,300.999z"/>
	</g>
</g>
<g>
	<g>
		<path d="M300.99,300.999c-16.541,0-29.999,13.458-29.999,29.999s13.458,29.999,29.999,29.999s29.999-13.458,29.999-29.999
			S317.532,300.999,300.99,300.999z"/>
	</g>
</g>
<g>
</g>
<g>
</g>
<g>
</g>
<g>
</g>
<g>
</g>
<g>
</g>
<g>
</g>
<g>
</g>
<g>
</g>
<g>
</g>
<g>
</g>
<g>
</g>
<g>
</g>
<g>
</g>
<g>
</g>
</svg>
