<svg id="Layer_2" height="512" viewBox="0 0 32 32" width="512" xmlns="http://www.w3.org/2000/svg" data-name="Layer 2"><path d="m3.33 5.98v17.91a4.99334 4.99334 0 0 0 4.98 4.98h6.74a7.01579 7.01579 0 0 1 .59-2 7.63231 7.63231 0 0 1 4.08-3.92 4.89562 4.89562 0 0 1 -2.11-4.04 4.95493 4.95493 0 0 1 4.95-4.95 4.71818 4.71818 0 0 1 1.41.21 4.90492 4.90492 0 0 1 2 1.16v-9.35a4.98045 4.98045 0 0 0 -4.98-4.98h-12.68a4.98687 4.98687 0 0 0 -4.98 4.98zm6.04-.02h10.56a1 1 0 0 1 0 2h-10.56a1 1 0 0 1 0-2zm0 5.32h10.56a1 1 0 0 1 0 2h-10.56a1 1 0 0 1 0-2zm0 5.31h4.8a1 1 0 1 1 0 2h-4.8a1 1 0 1 1 0-2z"/><circle cx="22.56" cy="18.91" r="3.45"/><path d="m17.46 31h10.21a1.003 1.003 0 0 0 1-1 6.105 6.105 0 0 0 -12.21 0 1.00291 1.00291 0 0 0 1 1z"/></svg>