<svg id="Layer_1" enable-background="new 0 0 512 512" height="512" viewBox="0 0 512 512" width="512" xmlns="http://www.w3.org/2000/svg"><path clip-rule="evenodd" d="m417.005 69.439c11.517 0 20.91 9.393 20.91 20.91v384.741c0 11.516-9.393 20.91-20.91 20.91h-322.01c-11.517 0-20.91-9.393-20.91-20.91v-384.741c0-11.516 9.393-20.91 20.91-20.91h44.349v22.845c0 17.728 14.412 32.139 32.14 32.139h169.034c17.727 0 32.14-14.412 32.14-32.139v-22.845zm-155.624 245.536h98.776c6.265 0 11.344-5.079 11.344-11.344s-5.079-11.344-11.344-11.344h-98.776c-6.265 0-11.344 5.079-11.344 11.344s5.079 11.344 11.344 11.344zm0 99.427h98.776c6.265 0 11.344-5.079 11.344-11.344s-5.079-11.344-11.344-11.344h-98.776c-6.265 0-11.344 5.079-11.344 11.344 0 6.266 5.079 11.344 11.344 11.344zm0-198.855h98.776c6.265 0 11.344-5.079 11.344-11.344s-5.079-11.344-11.344-11.344h-98.776c-6.265 0-11.344 5.079-11.344 11.344 0 6.266 5.079 11.344 11.344 11.344zm-122.719-1.566 17.212 17.211c4.429 4.429 11.611 4.429 16.04 0l.062-.064 41.343-37.519c4.625-4.209 4.962-11.371.753-15.996s-11.371-4.962-15.996-.753l-33.79 30.665-9.584-9.584c-4.429-4.429-11.611-4.429-16.041 0-4.428 4.429-4.428 11.611.001 16.04zm0 198.855 17.212 17.211c4.429 4.429 11.611 4.429 16.04 0l.062-.064 41.343-37.519c4.625-4.209 4.962-11.371.753-15.996s-11.371-4.962-15.996-.753l-33.79 30.665-9.584-9.584c-4.429-4.429-11.611-4.429-16.041 0-4.428 4.429-4.428 11.611.001 16.04zm0-99.427 17.212 17.211c4.429 4.429 11.611 4.429 16.04 0l.062-.064 41.343-37.519c4.625-4.209 4.962-11.371.753-15.996s-11.371-4.962-15.996-.754l-33.79 30.665-9.584-9.584c-4.429-4.429-11.611-4.429-16.041 0-4.428 4.429-4.428 11.611.001 16.041zm32.821-265.679c-5.206 0-9.453 4.246-9.453 9.453v35.101c0 5.206 4.247 9.452 9.453 9.452h169.034c5.206 0 9.453-4.247 9.453-9.452v-35.102c0-5.206-4.246-9.453-9.453-9.453h-44.182c-4.391-18.204-20.782-31.729-40.335-31.729s-35.944 13.525-40.335 31.73z" fill-rule="evenodd"/></svg>