<svg id="Layer_1" enable-background="new 0 0 24 24" height="512" viewBox="0 0 24 24" width="512" xmlns="http://www.w3.org/2000/svg"><path d="m21.6 10.7-1.4-1.6c-.3-.3-.5-.9-.5-1.3v-1.6c0-1.1-.9-1.9-1.9-1.9h-1.7c-.4 0-1-.2-1.3-.5l-1.6-1.4c-.7-.6-1.8-.6-2.5 0l-1.5 1.4c-.3.3-.9.5-1.3.5h-1.7c-1.1 0-1.9.9-1.9 1.9v1.7c0 .4-.2 1-.5 1.3l-1.3 1.6c-.6.7-.6 1.8 0 2.5l1.3 1.6c.3.3.5.9.5 1.3v1.7c0 1.1.9 1.9 1.9 1.9h1.7c.4 0 1 .2 1.3.5l1.6 1.4c.7.6 1.8.6 2.5 0l1.6-1.4c.3-.3.9-.5 1.3-.5h1.7c1.1 0 1.9-.9 1.9-1.9v-1.7c0-.4.2-1 .5-1.3l1.4-1.6c.5-.7.5-1.9-.1-2.6zm-5.4-.6-4.8 4.8c-.1.1-.3.2-.5.2s-.4-.1-.5-.2l-2.4-2.4c-.3-.3-.3-.8 0-1.1s.8-.3 1.1 0l1.9 1.9 4.1-4.3c.3-.3.8-.3 1.1 0s.3.8 0 1.1z"/></svg>